<?xml version="1.0" encoding="UTF-8"?>
<svg width="19px" height="20px" viewBox="0 0 19 20" version="1.1" xmlns="http://www.w3.org/2000/svg" xmlns:xlink="http://www.w3.org/1999/xlink">
    <!-- Generator: sketchtool 52 (66869) - http://www.bohemiancoding.com/sketch -->
    <title>5A44BE4E-32F9-45AE-B0F7-119BC532281E</title>
    <desc>Created with sketchtool.</desc>
    <g id="Page-1" stroke="none" stroke-width="1" fill="none" fill-rule="evenodd">
        <g id="Info-Beasiswa" transform="translate(-1238.000000, -126.000000)" fill="#FFFFFF">
            <g id="Group-14" transform="translate(437.000000, 100.000000)">
                <g id="Group-11" transform="translate(15.000000, 15.000000)">
                    <g id="Group-15" transform="translate(764.000000, 0.000000)">
                        <g id="Search" transform="translate(19.000000, 8.000000)">
                            <path d="M16.1479167,10.2819167 L15.3208333,10.2819167 L15.0333333,10.57875 C16.0489583,11.8105 16.6666667,13.4073333 16.6666667,15.1569167 C16.6666667,19.0460833 13.6354167,22.1985833 9.89583333,22.1985833 C6.15625,22.1985833 3.125,19.0460833 3.125,15.1569167 C3.125,11.26775 6.15625,8.11525 9.89583333,8.11525 C11.578125,8.11525 13.1125,8.75658333 14.296875,9.81175 L14.584375,9.51491667 L14.584375,8.65691667 L19.790625,3.25 L21.34375,4.86525 L16.1479167,10.2819167 L16.1479167,10.2819167 Z M9.89583333,10.2819167 C7.30625,10.2819167 5.20833333,12.46375 5.20833333,15.1569167 C5.20833333,17.849 7.30625,20.0319167 9.89583333,20.0319167 C12.484375,20.0319167 14.5833333,17.849 14.5833333,15.1569167 C14.5833333,12.46375 12.484375,10.2819167 9.89583333,10.2819167 L9.89583333,10.2819167 Z" id="Shape" transform="translate(12.234375, 12.724292) scale(1, -1) translate(-12.234375, -12.724292) "></path>
                        </g>
                    </g>
                </g>
            </g>
        </g>
    </g>
</svg>