<?xml version="1.0" encoding="UTF-8"?>
<svg width="60px" height="53px" viewBox="0 0 60 53" version="1.1" xmlns="http://www.w3.org/2000/svg" xmlns:xlink="http://www.w3.org/1999/xlink">
    <!-- Generator: sketchtool 52 (66869) - http://www.bohemiancoding.com/sketch -->
    <title>0A0F600C-E452-441B-9717-2E90844E3DEB</title>
    <desc>Created with sketchtool.</desc>
    <g id="Page-1" stroke="none" stroke-width="1" fill="none" fill-rule="evenodd">
        <g id="Les-Online---Daftar-berbayar" transform="translate(-1128.000000, -527.000000)" fill="#F69833" fill-rule="nonzero">
            <g id="003-task" transform="translate(1128.000000, 527.000000)">
                <path d="M58.125,0 L1.875,0 C0.84,0 0,0.84 0,1.875 L0,12.54 C0,13.575 0.84,14.415 1.875,14.415 L58.125,14.415 C59.16,14.415 60,13.575 60,12.54 L60,1.875 C60,0.84 59.16,0 58.125,0 Z M56.25,10.663125 L40.22625,10.663125 L40.22625,3.748125 L56.25,3.748125 L56.25,10.663125 Z M58.125,19.0425 L1.875,19.0425 C0.84,19.0425 0,19.8825 0,20.9175 L0,31.5825 C0,32.619375 0.84,33.4575 1.875,33.4575 L58.125,33.4575 C59.16,33.4575 60,32.619375 60,31.5825 L60,20.9175 C60,19.8825 59.16,19.0425 58.125,19.0425 Z M56.25,29.7075 L28.081875,29.7075 L28.081875,22.7925 L56.25,22.7925 L56.25,29.7075 Z M58.125,38.085 L1.875,38.085 C0.84,38.085 0,38.92125 0,39.96 L0,50.625 C0,51.66 0.84,52.5 1.875,52.5 L58.125,52.5 C59.16,52.5 60,51.66 60,50.625 L60,39.96 C60,38.925 59.16,38.085 58.125,38.085 Z M56.25,48.75 L51.091875,48.75 L51.091875,41.835 L56.25,41.835 L56.25,48.75 Z" id="Shape"></path>
            </g>
        </g>
    </g>
</svg>