<?xml version="1.0" encoding="UTF-8"?>
<svg width="61px" height="60px" viewBox="0 0 61 60" version="1.1" xmlns="http://www.w3.org/2000/svg" xmlns:xlink="http://www.w3.org/1999/xlink">
    <!-- Generator: sketchtool 52 (66869) - http://www.bohemiancoding.com/sketch -->
    <title>257FB233-F350-4E8B-A903-2D889DB02B48</title>
    <desc>Created with sketchtool.</desc>
    <g id="Page-1" stroke="none" stroke-width="1" fill="none" fill-rule="evenodd">
        <g id="Les-Online---Daftar-berbayar" transform="translate(-545.000000, -523.000000)" fill="#F69833" fill-rule="nonzero">
            <g id="002-calendar" transform="translate(545.000000, 523.000000)">
                <path d="M21.8159509,29.2147239 C21.8159509,29.7668712 21.3742331,30.208589 20.8220859,30.208589 L17.0920245,30.208589 C16.5398773,30.208589 16.0981595,29.7668712 16.0981595,29.2147239 L16.0981595,25.4846626 C16.0981595,24.9325153 16.5398773,24.4907975 17.0920245,24.4907975 L20.8220859,24.4907975 C21.3742331,24.4907975 21.8159509,24.9325153 21.8159509,25.4846626 L21.8159509,29.2147239 Z M29.607362,25.4969325 C29.607362,24.9447853 29.1656442,24.5030675 28.6134969,24.5030675 L24.8834356,24.5030675 C24.3312883,24.5030675 23.8895706,24.9447853 23.8895706,25.4969325 L23.8895706,29.2269939 C23.8895706,29.7791411 24.3312883,30.2208589 24.8834356,30.2208589 L28.6134969,30.2208589 C29.1656442,30.2208589 29.607362,29.7791411 29.607362,29.2269939 L29.607362,25.4969325 Z M37.398773,25.4969325 C37.398773,24.9447853 36.9570552,24.5030675 36.404908,24.5030675 L32.6748466,24.5030675 C32.1226994,24.5030675 31.6809816,24.9447853 31.6809816,25.4969325 L31.6809816,29.2269939 C31.6809816,29.7791411 32.1226994,30.2208589 32.6748466,30.2208589 L36.404908,30.2208589 C36.9570552,30.2208589 37.398773,29.7791411 37.398773,29.2269939 L37.398773,25.4969325 Z M21.8159509,33.0797546 C21.8159509,32.5276074 21.3742331,32.0858896 20.8220859,32.0858896 L17.0920245,32.0858896 C16.5398773,32.0858896 16.0981595,32.5276074 16.0981595,33.0797546 L16.0981595,36.809816 C16.0981595,37.3619632 16.5398773,37.803681 17.0920245,37.803681 L20.8220859,37.803681 C21.3742331,37.803681 21.8159509,37.3619632 21.8159509,36.809816 L21.8159509,33.0797546 Z M29.607362,33.0797546 C29.607362,32.5276074 29.1656442,32.0858896 28.6134969,32.0858896 L24.8834356,32.0858896 C24.3312883,32.0858896 23.8895706,32.5276074 23.8895706,33.0797546 L23.8895706,36.809816 C23.8895706,37.3619632 24.3312883,37.803681 24.8834356,37.803681 L28.6134969,37.803681 C29.1656442,37.803681 29.607362,37.3619632 29.607362,36.809816 L29.607362,33.0797546 Z M36.404908,32.0858896 L32.6748466,32.0858896 C32.1226994,32.0858896 31.6809816,32.5276074 31.6809816,33.0797546 L31.6809816,36.809816 C31.6809816,37.3619632 32.1226994,37.803681 32.6748466,37.803681 L36.404908,37.803681 C36.9570552,37.803681 37.398773,37.3619632 37.398773,36.809816 L37.398773,33.0797546 C37.398773,32.5276074 36.9570552,32.0858896 36.404908,32.0858896 Z M13.0184049,39.6687117 L9.3006135,39.6687117 C8.74846626,39.6687117 8.30674847,40.1104294 8.30674847,40.6625767 L8.30674847,44.392638 C8.30674847,44.9447853 8.74846626,45.3865031 9.3006135,45.3865031 L13.0306748,45.3865031 C13.5828221,45.3865031 14.0245399,44.9447853 14.0245399,44.392638 L14.0245399,40.6625767 C14.0245399,40.1104294 13.5705521,39.6687117 13.0184049,39.6687117 Z M14.0245399,33.0797546 C14.0245399,32.5276074 13.5828221,32.0858896 13.0306748,32.0858896 L9.3006135,32.0858896 C8.74846626,32.0858896 8.30674847,32.5276074 8.30674847,33.0797546 L8.30674847,36.809816 C8.30674847,37.3619632 8.74846626,37.803681 9.3006135,37.803681 L13.0306748,37.803681 C13.5828221,37.803681 14.0245399,37.3619632 14.0245399,36.809816 L14.0245399,33.0797546 Z M28.6134969,39.6687117 L24.8834356,39.6687117 C24.3312883,39.6687117 23.8895706,40.1104294 23.8895706,40.6625767 L23.8895706,44.392638 C23.8895706,44.9447853 24.3312883,45.3865031 24.8834356,45.3865031 L28.6134969,45.3865031 C29.1656442,45.3865031 29.607362,44.9447853 29.607362,44.392638 L29.607362,40.6625767 C29.607362,40.1104294 29.1656442,39.6687117 28.6134969,39.6687117 Z M20.8220859,39.6687117 L17.0920245,39.6687117 C16.5398773,39.6687117 16.0981595,40.1104294 16.0981595,40.6625767 L16.0981595,44.392638 C16.0981595,44.9447853 16.5398773,45.3865031 17.0920245,45.3865031 L20.8220859,45.3865031 C21.3742331,45.3865031 21.8159509,44.9447853 21.8159509,44.392638 L21.8159509,40.6625767 C21.8159509,40.1104294 21.3742331,39.6687117 20.8220859,39.6687117 Z M44.196319,30.2208589 C44.7484663,30.2208589 45.190184,29.7791411 45.190184,29.2269939 L45.190184,25.4969325 C45.190184,24.9447853 44.7484663,24.5030675 44.196319,24.5030675 L40.4662577,24.5030675 C39.9141104,24.5030675 39.4723926,24.9447853 39.4723926,25.4969325 L39.4723926,29.2269939 C39.4723926,29.7791411 39.9141104,30.2208589 40.4662577,30.2208589 L44.196319,30.2208589 Z M5.85276074,53.4846626 L34.1595092,53.4846626 C33.7055215,52.0613497 33.4478528,50.5398773 33.4355828,48.9693252 L5.85276074,48.9693252 C5.11656442,48.9693252 4.52760736,48.3680982 4.52760736,47.6441718 L4.52760736,20.9815951 L48.9079755,20.9815951 L48.9079755,33.3865031 C50.4785276,33.398773 52,33.6319018 53.4233129,34.0858896 L53.4233129,11.6441718 C53.4233129,8.41717791 50.797546,5.79141104 47.5705521,5.79141104 L41.0184049,5.79141104 L41.0184049,2.18404908 C41.0184049,1.00613497 40.0613497,0.0490797546 38.8834356,0.0490797546 L35.5582822,0.0490797546 C34.3803681,0.0490797546 33.4233129,1.00613497 33.4233129,2.18404908 L33.4233129,5.80368098 L20,5.80368098 L20,2.18404908 C20,1.00613497 19.0429448,0.0490797546 17.8650307,0.0490797546 L14.5398773,0.0490797546 C13.3619632,0.0490797546 12.404908,1.00613497 12.404908,2.18404908 L12.404908,5.80368098 L5.85276074,5.80368098 C2.62576687,5.80368098 0,8.42944785 0,11.6564417 L0,47.6441718 C0,50.8588957 2.62576687,53.4846626 5.85276074,53.4846626 Z M60.0245399,48.797546 C60.0245399,54.9693252 55.0184049,59.9754601 48.8466258,59.9754601 C42.6748466,59.9754601 37.6687117,54.9693252 37.6687117,48.797546 C37.6687117,42.6257669 42.6748466,37.6196319 48.8466258,37.6196319 C55.0184049,37.6196319 60.0245399,42.6257669 60.0245399,48.797546 Z M54.4907975,45.9018405 C54.4907975,45.5460123 54.3558282,45.202454 54.0981595,44.9570552 C53.5705521,44.4294479 52.7239264,44.4294479 52.196319,44.9570552 L47.3374233,49.8159509 L45.4723926,47.9509202 C44.9447853,47.4233129 44.0981595,47.4233129 43.5705521,47.9509202 C43.3128834,48.208589 43.1779141,48.5398773 43.1779141,48.8957055 C43.1779141,49.2515337 43.3128834,49.595092 43.5705521,49.8404908 L46.3803681,52.6503067 C46.9079755,53.1779141 47.7546012,53.1779141 48.2822086,52.6503067 L54.0858896,46.8466258 C54.3558282,46.601227 54.4907975,46.2576687 54.4907975,45.9018405 Z" id="Shape"></path>
            </g>
        </g>
    </g>
</svg>