<svg xmlns="http://www.w3.org/2000/svg" viewBox="808 624 24.986 24.635">
  <defs>
    <style>
      .cls-1 {
        fill: #f69833;
      }
    </style>
  </defs>
  <g id="logo-atas" transform="translate(808 623.824)">
    <g id="landing-page" transform="translate(-149 -28)">
      <g id="Group" transform="translate(149 28)">
        <g id="bee">
          <path id="Shape" class="cls-1" d="M24,13.52,18.39,7.4l-.017.016A5.9,5.9,0,0,0,17.1,4.4L18.969,1.9A1.077,1.077,0,1,0,17.241.61L15.463,3a5.917,5.917,0,0,0-5.941-.008L7.749.61A1.077,1.077,0,1,0,6.022,1.9l1.859,2.5A5.893,5.893,0,0,0,6.6,7.4L6.59,7.4.982,13.52a3.743,3.743,0,0,0,2.761,6.269c.055,0,.11,0,.164,0a3.713,3.713,0,0,0,2.6-1.211l.384-.42a5.931,5.931,0,0,0,4.536,3.868v1.711a1.082,1.082,0,0,0,2.163,0V22.018a5.937,5.937,0,0,0,4.5-3.878l.4.434a3.72,3.72,0,0,0,2.6,1.211c.055,0,.109,0,.165,0A3.743,3.743,0,0,0,24,13.52Zm-18.7,3.963a2.11,2.11,0,0,1-1.472.689l-.092,0a2.125,2.125,0,0,1-1.567-3.56L6.554,9.827v6.292ZM16.25,16.191H8.718v-2.7H16.25Zm0-5.37H8.718v-2.7H16.25Zm7.117,5.318a2.126,2.126,0,0,1-2.124,2.033l-.094,0a2.118,2.118,0,0,1-1.478-.689l-1.259-1.371v-6.3l4.4,4.8A2.108,2.108,0,0,1,23.368,16.14Z"/>
        </g>
      </g>
    </g>
  </g>
</svg>
