<?xml version="1.0" encoding="UTF-8"?>
<svg width="107px" height="25px" viewBox="0 0 107 25" version="1.1" xmlns="http://www.w3.org/2000/svg" xmlns:xlink="http://www.w3.org/1999/xlink">
    <!-- Generator: sketchtool 52 (66869) - http://www.bohemiancoding.com/sketch -->
    <title>9BFA6BA3-5494-4AA4-BDDC-A42F64DD4385</title>
    <desc>Created with sketchtool.</desc>
    <g id="Page-1" stroke="none" stroke-width="1" fill="none" fill-rule="evenodd">
        <g id="landing-page" transform="translate(-149.000000, -28.000000)">
            <g id="Group" transform="translate(149.000000, 28.000000)">
                <text id="Beapintar" font-family=".AppleSystemUIFont" font-size="16" font-weight="normal" letter-spacing="0.3076923" fill="#334665">
                    <tspan x="35" y="16">Beapintar</tspan>
                </text>
                <g id="bee" fill="#F69833" fill-rule="nonzero">
                    <path d="M24.0043478,13.5201087 L18.3896739,7.39619565 L18.3728261,7.41195652 C18.2369565,6.28206522 17.7815217,5.24891304 17.1,4.4048913 L18.9684783,1.8951087 C19.3222826,1.41847826 19.225,0.743478261 18.7478261,0.388586957 C18.2695652,0.0336956522 17.5961957,0.132608696 17.2407609,0.609782609 L15.4630435,2.99891304 C14.5875,2.48858696 13.5695652,2.1951087 12.4853261,2.1951087 C11.4070652,2.1951087 10.3940217,2.48478261 9.52173913,2.99076087 L7.74945652,0.609782609 C7.3951087,0.132608696 6.71956522,0.0336956522 6.2423913,0.388586957 C5.76576087,0.744021739 5.66630435,1.41902174 6.02173913,1.8951087 L7.88043478,4.3923913 C7.19402174,5.23641304 6.73641304,6.27173913 6.59891304,7.40434783 L6.58967391,7.39619565 L0.981521739,13.5201087 C0.307065217,14.2559783 -0.039673913,15.2119565 0.00380434783,16.2108696 C0.047826087,17.2092391 0.478804348,18.1304348 1.21521739,18.8054348 C1.90706522,19.4391304 2.80543478,19.7891304 3.74293478,19.7891304 C3.79782609,19.7891304 3.85271739,19.7880435 3.90706522,19.7853261 C4.90597826,19.7418478 5.82717391,19.3119565 6.50271739,18.573913 L6.88641304,18.1543478 C7.58043478,20.1353261 9.29836957,21.6375 11.4222826,22.0222826 L11.4222826,23.7336957 C11.4222826,24.3282609 11.9092391,24.8103261 12.5043478,24.8103261 C13.0994565,24.8103261 13.5853261,24.3271739 13.5853261,23.7336957 L13.5853261,22.0179348 C15.6820652,21.6271739 17.3961957,20.1222826 18.0858696,18.1402174 L18.4831522,18.573913 C19.1576087,19.3108696 20.0804348,19.7407609 21.0788043,19.7853261 C21.1336957,19.7875 21.1880435,19.7891304 21.2434783,19.7891304 C22.1820652,19.7891304 23.0788043,19.438587 23.7706522,18.8054348 C24.5065217,18.1304348 24.9369565,17.2086957 24.9820652,16.2103261 C25.0271739,15.2119565 24.6788043,14.2559783 24.0043478,13.5201087 Z M5.30652174,17.4831522 C4.92228261,17.9021739 4.40108696,18.1472826 3.83423913,18.1722826 L3.74184783,18.173913 C3.20978261,18.173913 2.69945652,17.976087 2.30706522,17.6163043 C1.8875,17.2320652 1.64293478,16.7086957 1.61847826,16.1418478 C1.59402174,15.5744565 1.79130435,15.0315217 2.175,14.613587 L6.55434783,9.82663043 L6.55434783,16.1184783 L5.30652174,17.4831522 Z M16.2505435,16.1907609 L8.71793478,16.1907609 L8.71793478,13.4858696 L16.2505435,13.4858696 L16.2505435,16.1907609 Z M16.2505435,10.8211957 L8.71793478,10.8211957 L8.71793478,8.11684783 L16.2505435,8.11684783 L16.2505435,10.8211957 Z M23.3679348,16.1396739 C23.3434783,16.7070652 23.0994565,17.2309783 22.6793478,17.6146739 C22.2858696,17.975 21.7771739,18.1722826 21.2434783,18.1722826 L21.15,18.1706522 C20.5831522,18.1456522 20.0543478,17.9016304 19.6717391,17.4820652 L18.4125,16.1108696 L18.4125,9.81413043 L22.8097826,14.6108696 C23.1945652,15.0298913 23.3929348,15.5728261 23.3679348,16.1396739 Z" id="Shape"></path>
                </g>
            </g>
        </g>
    </g>
</svg>