<?xml version="1.0" encoding="UTF-8"?>
<svg width="50px" height="60px" viewBox="0 0 50 60" version="1.1" xmlns="http://www.w3.org/2000/svg" xmlns:xlink="http://www.w3.org/1999/xlink">
    <!-- Generator: sketchtool 52 (66869) - http://www.bohemiancoding.com/sketch -->
    <title>3EB7DB71-D64A-4E41-8695-F6F1F29192DA</title>
    <desc>Created with sketchtool.</desc>
    <g id="Page-1" stroke="none" stroke-width="1" fill="none" fill-rule="evenodd">
        <g id="Les-Online---Daftar-berbayar" transform="translate(-256.000000, -523.000000)" fill="#F69833" fill-rule="nonzero">
            <g id="001-document" transform="translate(256.000000, 523.000000)">
                <path d="M45.8392484,6.78914405 L44.085595,6.78914405 L44.085595,49.872714 C44.085595,52.7348643 41.7557411,55.0646555 38.8935908,55.0646555 L21.125261,55.0646555 L6.99582463,55.0646555 L6.99582463,56.6617328 C6.99582463,58.4906054 8.48016701,59.9748852 10.308977,59.9748852 L28.0709812,59.9748852 L45.8329854,59.9748852 C47.6617954,59.9748852 49.1460752,58.4906054 49.1460752,56.6617328 L49.1460752,10.1022965 C49.1461378,8.27348643 47.6680585,6.78914405 45.8392484,6.78914405 Z" id="Shape"></path>
                <path d="M21.125261,53.1857411 L38.8872651,53.1857411 C40.7160752,53.1857411 42.2004175,51.7014614 42.2004175,49.872714 L42.2004175,6.78914405 L42.2004175,3.3131524 C42.2004175,1.48434238 40.7160752,0 38.8872651,0 L21.125261,0 L15.2192067,0 L15.2192067,1.0960334 C15.2316701,1.20876827 15.2379958,1.32776618 15.2379958,1.44676409 L15.2379958,8.66805846 L15.2379958,10.5219207 C15.2379958,13.0960334 13.1461378,15.1878914 10.5720251,15.1878914 L8.71816284,15.1878914 L1.49686848,15.1878914 C1.40292276,15.1878914 1.30271399,15.1816284 1.20876827,15.1753653 L0.0563674322,15.1753653 L0.0563674322,49.872714 C0.0563674322,51.7014614 1.54070981,53.1857411 3.36951983,53.1857411 L7.00208768,53.1857411 L21.125261,53.1857411 Z M21.7954071,41.9248434 L10.2150313,41.9248434 C9.35073069,41.9248434 8.64926931,41.2233194 8.64926931,40.3590814 C8.64926931,39.4947182 9.35073069,38.7933194 10.2150313,38.7933194 L21.8016701,38.7933194 C22.6659708,38.7933194 23.3674322,39.4947182 23.3674322,40.3590814 C23.3674322,41.2233194 22.6597077,41.9248434 21.7954071,41.9248434 Z M33.3820459,33.9332568 L10.2150313,33.9332568 C9.35073069,33.9332568 8.64926931,33.2317328 8.64926931,32.3674948 C8.64926931,31.5031315 9.35073069,30.8017328 10.2150313,30.8017328 L33.3820459,30.8017328 C34.2463466,30.8017328 34.9478079,31.5031315 34.9478079,32.3674948 C34.9478079,33.2317328 34.2463466,33.9332568 33.3820459,33.9332568 Z M10.2150313,22.3152401 L33.3820459,22.3152401 C34.2463466,22.3152401 34.9478079,23.0167015 34.9478079,23.8810021 C34.9478079,24.7453027 34.2463466,25.4467641 33.3820459,25.4467641 L10.2150313,25.4467641 C9.35073069,25.4467641 8.64926931,24.7453027 8.64926931,23.8810021 C8.64926931,23.0167015 9.35073069,22.3152401 10.2150313,22.3152401 Z" id="Shape"></path>
                <path d="M1.49686848,13.308977 L10.5720251,13.308977 C10.5782881,13.308977 10.5908142,13.308977 10.5970772,13.308977 C12.1127349,13.2964509 13.3402923,12.0688935 13.3528184,10.5532359 C13.3528184,10.5469729 13.3528184,10.5344468 13.3528184,10.5281837 L13.3528184,1.44676409 C13.3528184,0.607515658 12.6638831,0.0501043841 11.9499582,0.0501043841 C11.6054906,0.0501043841 11.261023,0.175365344 10.9729228,0.463465553 L0.507306889,10.9290188 C-0.369519833,11.8058455 0.250521921,13.308977 1.49686848,13.308977 Z" id="Shape"></path>
            </g>
        </g>
    </g>
</svg>